<svg width="70" height="99" viewBox="0 0 70 99" fill="none" xmlns="http://www.w3.org/2000/svg">
<path d="M69.2948 49.7223C69.2948 49.1917 69.2733 48.6637 69.2518 48.133C69.2249 47.4569 69.198 46.8185 69.2168 46.1801C69.2626 44.58 69.0474 43.0365 68.7999 41.466C68.7595 41.2155 68.7488 40.9407 68.7353 40.6498C68.7273 40.4478 68.7165 40.243 68.7004 40.0437C68.6654 39.6369 68.6277 39.2383 68.5524 38.8234C68.5201 38.643 68.4637 38.4625 68.4045 38.282C68.3749 38.1904 68.3292 38.0503 68.3238 38.0234C68.3964 37.0779 68.1543 36.2186 67.9418 35.4616C67.8934 35.2946 67.8477 35.1249 67.8019 34.9552C67.6083 34.2144 67.4361 33.4763 67.2801 32.7302C67.1456 32.0756 67.003 31.3995 66.6183 30.7018C66.5484 30.5779 66.5161 30.3408 66.4812 30.0903C66.4543 29.9044 66.4274 29.7186 66.387 29.5354C66.3655 29.4357 66.344 29.3334 66.3224 29.231C66.2579 28.9077 66.1826 28.5414 66.04 28.175C65.6796 27.2511 65.3056 26.3325 64.9317 25.4139C64.6574 24.7405 64.3857 24.0644 64.1167 23.3909C64.0952 23.3344 64.0898 23.2724 64.079 23.2105C64.0467 23.0273 63.9983 22.7795 63.8719 22.5209C63.3904 21.543 62.8659 20.4979 62.2902 19.4554C61.8437 18.6446 61.3541 17.8741 60.8941 17.1603C60.644 16.7751 60.3857 16.3953 60.1248 16.0155C59.7966 15.5387 59.4684 15.0619 59.1672 14.5716C59.0945 14.4558 59.0246 14.3373 58.9547 14.2214C58.5673 13.5695 58.1289 12.8314 57.3353 12.2658C57.2223 12.0987 57.112 11.9317 57.0018 11.762C56.7274 11.3418 56.4476 10.9081 56.0952 10.4933L55.9957 10.3747C55.2371 9.48042 54.4517 8.55647 53.3999 7.78605C53.1471 7.60018 52.9076 7.35775 52.6521 7.10184C52.3804 6.82977 52.1007 6.54693 51.7644 6.28564C50.8418 5.57449 49.8384 4.82293 48.7544 4.16835C47.4363 3.371 46.1263 2.66793 44.8593 2.08069C43.8075 1.59043 42.6939 1.23755 41.6152 0.895443L41.4807 0.852343C40.6199 0.577581 39.7296 0.294737 38.7773 0.192374C37.2844 0.036137 35.7915 0.00919946 34.5299 0.00111821C33.3355 -0.00965678 32.2569 0.057687 31.2401 0.192374L30.8258 0.246249C29.766 0.378243 28.6685 0.515624 27.6409 1.06784C27.5898 1.0867 27.536 1.09478 27.4795 1.10825C27.3665 1.13249 27.2563 1.15943 27.1487 1.19176C26.9711 1.24832 26.7909 1.29951 26.6107 1.35338C26.1319 1.49346 25.6342 1.63892 25.1473 1.85172C24.4506 2.15881 23.7808 2.50631 23.1326 2.84302C22.8958 2.96694 22.6564 3.08816 22.4197 3.20937C22.3121 3.26325 22.2045 3.31712 22.0942 3.3683C21.7499 3.53532 21.3975 3.70502 21.0532 3.93938C20.4776 4.32997 19.91 4.73404 19.3451 5.1381C18.8528 5.48829 18.3606 5.84117 17.8602 6.18327L17.5859 6.36645C16.9241 6.80822 16.179 7.30387 15.754 8.18473C15.7459 8.19012 15.7379 8.1982 15.7271 8.20358C15.6491 8.26015 15.5738 8.31672 15.5038 8.37599C15.2833 8.56993 15.0573 8.7585 14.8314 8.94706C14.2934 9.39692 13.7339 9.86293 13.2308 10.3909C12.6633 10.9862 12.2113 11.6354 11.7729 12.2631L11.5523 12.5782C11.2591 12.9931 10.9524 13.3998 10.6458 13.8093C9.87108 14.8383 9.06947 15.905 8.46961 17.1145C8.16027 17.7395 7.79175 18.3456 7.39901 18.9867C7.11657 19.4473 6.83681 19.9079 6.57589 20.3793C6.39028 20.7134 6.26385 21.0555 6.15087 21.3572C6.07556 21.5592 6.00293 21.7639 5.90609 21.9579C5.77966 22.2165 5.6344 22.4697 5.49184 22.7229C5.25243 23.1431 5.00764 23.5768 4.81666 24.0536C4.60953 24.5735 4.45889 25.0961 4.31364 25.5998C4.2168 25.9419 4.11727 26.2867 4.0016 26.6207C3.9747 26.6935 3.90207 26.8174 3.82944 26.9332C3.65998 27.2107 3.45016 27.5555 3.39367 28C3.32911 28.4983 3.18655 29.0074 2.93638 29.6512C2.49792 30.7772 2.05676 31.9894 1.91958 33.3524C1.86309 33.9127 1.65865 34.5054 1.43808 35.1303C1.32241 35.4616 1.20674 35.7957 1.1099 36.1297C1.0292 36.4044 0.980783 36.6954 0.967333 36.9998C0.956574 37.2341 0.951194 37.4685 0.948504 37.7028C0.945814 38.053 0.940434 38.3817 0.902775 38.6887C0.848975 39.1171 0.776347 39.5454 0.703718 39.9737C0.56653 40.771 0.426653 41.598 0.405133 42.4465C0.394373 42.926 0.324434 43.4001 0.254496 43.9038L0.192627 44.3483C0.125378 44.8547 0.141518 45.3396 0.157657 45.8056L0.168417 46.145C0.171107 46.3067 0.198007 46.4683 0.230286 46.6299C0.238356 46.673 0.249116 46.7188 0.259876 46.7C0.0823386 47.8286 -0.0844385 49.1728 0.0473692 50.5978C0.154967 51.748 0.206077 52.936 0.254496 54.0808C0.289465 54.8701 0.324434 55.6594 0.375544 56.4459C0.410513 56.982 0.491212 57.5046 0.56922 58.0083C0.60957 58.2696 0.649919 58.5336 0.684888 58.7949C0.725238 59.1235 0.749447 59.4522 0.768277 59.7808C0.768277 59.8131 0.768277 59.8481 0.762897 59.8805C0.754827 60.0232 0.744067 60.2172 0.787107 60.4435C0.870495 60.861 0.961954 61.2785 1.05341 61.6961C1.11797 61.9897 1.18253 62.286 1.2444 62.5796L1.27399 62.7224C1.41387 63.3877 1.55374 64.0531 1.6721 64.7211C1.69362 64.8477 1.71514 64.9743 1.73397 65.101C1.84157 65.7825 1.95993 66.5529 2.47909 67.2802C2.53827 67.5765 2.59476 67.8728 2.65124 68.1718C2.78305 68.8668 2.91755 69.5834 3.10585 70.2972C3.21344 70.6986 3.40443 71.0326 3.5739 71.3289C3.67074 71.4959 3.75951 71.6549 3.81599 71.7895C4.07154 72.428 4.31095 73.0691 4.54766 73.7129C4.7252 74.187 4.90005 74.6611 5.08296 75.1325C5.65592 76.6194 6.358 78.3434 7.41246 79.9624C7.71912 80.4311 7.98004 80.9294 8.2598 81.4601C8.52072 81.9557 8.79241 82.4703 9.10713 82.9713C9.3573 83.37 9.65319 83.7175 9.93564 84.0515C10.1912 84.3559 10.436 84.6414 10.6135 84.9296C11.1515 85.8024 11.8213 86.8907 12.9134 87.7473C13.0372 87.8443 13.1636 88.0382 13.3008 88.243C13.4595 88.4827 13.637 88.7521 13.8872 89.0026C15.2295 90.3549 16.3431 91.427 17.3922 92.3779C18.105 93.0271 18.8797 93.617 19.6894 94.1315C20.8273 94.8588 22.1184 95.6831 23.5011 96.3511C25.0828 97.1162 26.5838 97.6684 28.0901 98.0347C28.3591 98.1021 28.6254 98.1775 28.8917 98.2556C29.3033 98.3768 29.731 98.5008 30.1829 98.5896C30.5353 98.6597 30.8769 98.6624 31.1782 98.6678C31.3504 98.6678 31.5225 98.6678 31.6893 98.6893C32.3214 98.762 32.9509 98.8483 33.4485 98.9183L34.0403 98.9991L34.1372 98.9937C34.6025 98.9668 35.0329 98.9452 35.4418 98.9237C36.3671 98.8752 37.166 98.8348 37.9784 98.754C38.702 98.6812 39.4471 98.5304 40.1976 98.3014C41.8546 97.8004 43.2184 97.3505 44.4935 96.8899C45.5103 96.5209 46.4571 96.0656 47.17 95.7073C47.7456 95.4191 48.3401 95.0528 48.9884 94.5894C49.911 93.9268 50.8445 93.221 51.7617 92.491C52.367 92.0088 52.9238 91.4916 53.4403 91.0014C53.6877 90.767 53.9218 90.5192 54.1531 90.2687C54.2849 90.1259 54.4167 89.9831 54.5512 89.8457C54.5808 89.8188 54.6131 89.7946 54.6454 89.7703C54.7691 89.6733 54.8875 89.5737 54.987 89.4632C55.2425 89.1804 55.4927 88.8975 55.7456 88.612C56.0065 88.3157 56.2701 88.0167 56.5364 87.7258C56.6521 87.5992 56.7758 87.4779 56.8995 87.3594C57.1416 87.1251 57.416 86.8584 57.6474 86.5405C58.4409 85.4522 59.2828 84.2778 60.0656 83.0656C60.8699 81.8184 61.7011 80.5308 62.4032 79.1569C63.2021 77.5946 63.9123 75.981 64.5982 74.4213L64.8457 73.8637C65.0393 73.4246 65.1712 72.9883 65.3003 72.568C65.3675 72.3445 65.4375 72.1209 65.5128 71.8973C65.6446 71.5202 65.7845 71.1457 65.9216 70.7713C66.1772 70.0844 66.4381 69.3759 66.6614 68.654C66.8362 68.0883 66.9761 67.52 67.1133 66.9677C67.2639 66.3589 67.4065 65.7852 67.5894 65.2195C67.8046 64.5541 68.0467 63.7972 68.0225 62.9298C68.0144 62.62 68.0575 62.2968 68.1489 61.9924C68.6277 60.3923 68.7407 58.7599 68.8133 57.2244C68.816 57.1625 68.8376 57.1032 68.8537 57.0413C68.8833 56.9254 68.9102 56.8096 68.929 56.6938L68.9667 56.4513C69.0232 56.1119 69.0797 55.7563 69.0985 55.3819C69.1119 55.1368 69.0877 54.9186 69.0662 54.7273C69.0527 54.6142 69.0366 54.5011 69.0447 54.3879C69.0527 54.2398 69.0797 54.0943 69.1066 53.9461C69.1469 53.7064 69.1953 53.4343 69.198 53.138C69.2007 52.8175 69.1819 52.4942 69.1603 52.1737C69.1415 51.8854 69.12 51.5972 69.1281 51.309C69.1334 51.1258 69.1657 50.9157 69.2007 50.6921C69.2464 50.4039 69.2975 50.0752 69.2975 49.7277L69.2948 49.7223ZM67.229 50.3769C67.1859 50.6409 67.1402 50.9399 67.1321 51.2578C67.1241 51.6214 67.1456 51.9689 67.1698 52.303C67.1886 52.5723 67.2074 52.8417 67.2048 53.1111C67.2048 53.2458 67.1725 53.4182 67.1429 53.5986C67.1025 53.8249 67.0676 54.0485 67.0541 54.2748C67.0407 54.5226 67.0649 54.7408 67.0864 54.9347C67.0972 55.0479 67.116 55.161 67.1079 55.2715C67.0945 55.5381 67.0487 55.821 67.0003 56.1227L66.96 56.3786C66.9519 56.4352 66.9358 56.4917 66.9223 56.5483C66.882 56.7045 66.8335 56.8958 66.8228 57.1221C66.7528 58.5929 66.656 60.0286 66.2418 61.4132C66.0911 61.9169 66.0185 62.4557 66.0319 62.9729C66.0454 63.5036 65.8732 64.0369 65.693 64.5999C65.4913 65.2276 65.3326 65.8633 65.1792 66.4775C65.042 67.027 64.9129 67.5442 64.7569 68.0587C64.5525 68.7267 64.3104 69.3786 64.0548 70.0709C63.9123 70.4561 63.7697 70.8413 63.6325 71.2292C63.5464 71.4771 63.4684 71.7276 63.3931 71.9781C63.2774 72.3606 63.1671 72.7216 63.0219 73.0475L62.7744 73.6078C62.0992 75.1406 61.4025 76.7272 60.6278 78.2357C59.9688 79.5206 59.1645 80.7678 58.3871 81.9746C57.6339 83.1437 56.8108 84.2912 56.0361 85.3526C55.9043 85.5331 55.7106 85.7216 55.5088 85.9209C55.3582 86.0691 55.2049 86.2173 55.0623 86.3735C54.7879 86.6752 54.5189 86.9796 54.2526 87.284C54.0078 87.5614 53.7604 87.8416 53.5156 88.111C53.486 88.1379 53.4537 88.1621 53.4214 88.1864C53.3192 88.2672 53.217 88.348 53.1282 88.4396C52.9803 88.5905 52.835 88.744 52.6925 88.9002C52.4907 89.1184 52.289 89.3366 52.0711 89.5413C51.5842 90.002 51.0623 90.4868 50.519 90.9205C49.6286 91.629 48.7221 92.3159 47.8236 92.9597C47.2614 93.3611 46.7557 93.6763 46.2742 93.916C45.6098 94.25 44.7329 94.6729 43.8129 95.007C42.5728 95.4568 41.2386 95.8932 39.6193 96.3835C38.9925 96.5747 38.3711 96.7013 37.7767 96.7606C37.0127 96.8387 36.2353 96.8764 35.3369 96.9222C34.9522 96.9411 34.5487 96.9626 34.1156 96.9896L33.7229 96.9357C33.2091 96.863 32.5608 96.7741 31.9072 96.6986C31.6732 96.6717 31.4364 96.669 31.197 96.6663C30.9603 96.6663 30.7371 96.6609 30.5622 96.6259C30.1991 96.5532 29.8305 96.4481 29.4432 96.335C29.15 96.2488 28.8568 96.1653 28.5582 96.0925C27.189 95.7585 25.8171 95.2521 24.3646 94.549C23.0895 93.9322 21.8494 93.1402 20.7573 92.4425C20.0418 91.9873 19.3585 91.4647 18.7291 90.8909C17.7042 89.9616 16.6148 88.911 15.2994 87.5857C15.1891 87.4752 15.0788 87.3082 14.9632 87.1331C14.756 86.818 14.522 86.4624 14.1427 86.1688C13.3895 85.5761 12.908 84.8434 12.3082 83.8737C12.0526 83.4589 11.7487 83.1006 11.4555 82.7558C11.2053 82.4595 10.9686 82.182 10.791 81.8992C10.5167 81.4628 10.2746 81.0049 10.019 80.5227C9.7312 79.9785 9.43531 79.4155 9.08023 78.866C8.13068 77.4087 7.47702 75.8005 6.93903 74.4079C6.7588 73.9445 6.58665 73.4758 6.4118 73.0098C6.16701 72.3525 5.92223 71.6953 5.6613 71.0434C5.5537 70.7767 5.41921 70.5396 5.29816 70.3295C5.1798 70.1221 5.06682 69.9255 5.02647 69.7773C4.85701 69.1335 4.73327 68.4843 4.60415 67.7947C4.54497 67.4822 4.48579 67.1698 4.42392 66.86C4.39433 66.7091 4.33516 66.429 4.13341 66.1623C3.85903 65.8067 3.7891 65.3569 3.70033 64.7885C3.67881 64.6457 3.6546 64.5029 3.63039 64.3629C3.50665 63.676 3.36408 62.9918 3.22151 62.3102L3.19193 62.1675C3.13006 61.8658 3.06281 61.5641 2.99825 61.2651C2.90948 60.861 2.82071 60.4569 2.74539 60.0906C2.74539 60.0583 2.74539 60.0259 2.75077 59.9936C2.75884 59.8778 2.76153 59.7646 2.75346 59.6515C2.72925 59.2798 2.70504 58.9107 2.65662 58.5417C2.62166 58.2615 2.57862 57.9814 2.53289 57.7012C2.45757 57.219 2.38763 56.7638 2.35804 56.3166C2.30693 55.5435 2.27465 54.7677 2.23968 53.9946C2.18857 52.8228 2.13477 51.6134 2.02449 50.4146C1.9142 49.2078 2.06214 48.0172 2.22085 47.0124C2.27196 46.6973 2.21816 46.4306 2.17781 46.2366C2.16974 46.1908 2.15629 46.145 2.1536 46.1019L2.14284 45.7383C2.12939 45.3342 2.11594 44.9544 2.16167 44.6123L2.22085 44.1867C2.29886 43.6479 2.37687 43.093 2.39032 42.4977C2.40915 41.7919 2.5302 41.0727 2.662 40.3104C2.74001 39.8524 2.81802 39.3945 2.87451 38.9339C2.92562 38.5163 2.931 38.1123 2.93369 37.7244C2.93369 37.517 2.93907 37.3095 2.94983 37.1021C2.9579 36.954 2.97942 36.8139 3.01708 36.69C3.10585 36.3883 3.21075 36.0893 3.31297 35.7903C3.56045 35.0818 3.81599 34.3491 3.894 33.5545C4.00429 32.4419 4.39433 31.3752 4.78438 30.3785C5.09641 29.5812 5.27395 28.9266 5.36003 28.2774C5.37617 28.2208 5.46763 28.0727 5.5268 27.973C5.64785 27.7764 5.78235 27.5528 5.8765 27.278C6.00562 26.9063 6.1159 26.5265 6.2235 26.1493C6.36069 25.6726 6.48981 25.2227 6.65928 24.7971C6.79915 24.4442 7.00359 24.0859 7.21879 23.7088C7.38287 23.4206 7.54696 23.1297 7.69222 22.8333C7.81596 22.5801 7.91548 22.3161 8.01501 22.0522C8.11185 21.7936 8.20331 21.5484 8.31629 21.3464C8.56107 20.9019 8.83007 20.4655 9.09637 20.0264C9.4918 19.3773 9.90336 18.7065 10.2504 18.0008C10.7668 16.9583 11.477 16.0128 12.2302 15.0107C12.5503 14.5878 12.8677 14.1622 13.1743 13.7312L13.4003 13.4079C13.8146 12.8153 14.2073 12.255 14.6673 11.7674C15.0923 11.3229 15.5819 10.9135 16.101 10.4798C16.3377 10.2832 16.5744 10.0838 16.8058 9.88179C16.8327 9.86024 16.8623 9.83869 16.8919 9.81714C17.0775 9.68245 17.3572 9.47773 17.5132 9.11138C17.6935 8.68846 18.1508 8.38137 18.6834 8.02849L18.9793 7.82915C19.4877 7.47897 19.9907 7.1207 20.4937 6.76243C21.0478 6.36645 21.602 5.97316 22.1669 5.59065C22.3901 5.4398 22.6645 5.30511 22.955 5.16504C23.0761 5.10577 23.1944 5.0492 23.3128 4.98725C23.5576 4.86334 23.7997 4.73673 24.0418 4.61282C24.6927 4.2761 25.306 3.95824 25.9462 3.67539C26.3121 3.51377 26.7263 3.39255 27.1621 3.26594C27.3558 3.20937 27.5495 3.15281 27.7431 3.09085C27.7942 3.07469 27.848 3.06391 27.8992 3.05314C28.074 3.01542 28.3134 2.96155 28.5528 2.83494C29.2737 2.44974 30.1426 2.33929 31.0652 2.22616L31.4956 2.17228C32.3779 2.05645 33.3194 1.99719 34.3631 1.99719C34.4142 1.99719 34.4653 1.99719 34.5164 1.99719C35.7296 2.00257 37.1607 2.02951 38.5621 2.18036C39.3126 2.26117 40.1062 2.51169 40.8728 2.75682L41.0073 2.79992C42.0241 3.12317 43.0786 3.4572 44.0147 3.89359C45.2144 4.45119 46.4598 5.11924 47.7187 5.88157C48.7194 6.48767 49.6663 7.19612 50.5432 7.87225C50.7772 8.05273 50.9978 8.27632 51.2345 8.51337C51.5331 8.81237 51.8397 9.12215 52.219 9.4023C53.0825 10.0353 53.7577 10.83 54.4732 11.6731L54.5754 11.7917C54.8444 12.1095 55.0811 12.4732 55.3313 12.8557C55.4604 13.0523 55.5868 13.249 55.7187 13.4402C55.8424 13.6207 55.9796 13.7608 56.1383 13.8685C56.6144 14.1918 56.9049 14.6821 57.2412 15.2477C57.3165 15.3743 57.3918 15.5036 57.4698 15.6303C57.7899 16.1475 58.1342 16.6512 58.4812 17.1549C58.7314 17.5186 58.9816 17.8849 59.221 18.254C59.6621 18.9355 60.1275 19.6709 60.5444 20.4305C61.0986 21.438 61.6123 22.4589 62.0777 23.4044C62.0992 23.461 62.1046 23.5202 62.1154 23.5795C62.145 23.7357 62.1799 23.927 62.2633 24.1371C62.535 24.8159 62.8094 25.4948 63.0837 26.1736C63.455 27.0841 63.8235 27.9973 64.1812 28.9131C64.2619 29.1179 64.3131 29.3711 64.3669 29.6377C64.3911 29.7536 64.4126 29.8694 64.4395 29.9852C64.4691 30.1145 64.4879 30.2492 64.5067 30.3812C64.5605 30.7583 64.6278 31.2298 64.8726 31.6742C65.112 32.1079 65.2115 32.5874 65.3352 33.1746C65.4912 33.9208 65.6715 34.6885 65.8705 35.4616C65.919 35.6448 65.9674 35.8253 66.0212 36.0058C66.2068 36.6604 66.3816 37.2799 66.3359 37.8725C66.3036 38.2847 66.4193 38.6322 66.5134 38.9123C66.543 39.0012 66.5753 39.0901 66.5914 39.1817C66.6506 39.5103 66.6829 39.8605 66.7152 40.2188C66.7313 40.3939 66.7394 40.569 66.7475 40.7441C66.7636 41.0754 66.7771 41.4175 66.8335 41.7785C67.0649 43.2547 67.2693 44.6958 67.2263 46.1262C67.2048 46.8346 67.2343 47.5377 67.2612 48.2165C67.2828 48.7176 67.3016 49.2213 67.3016 49.7223C67.3016 49.9136 67.2666 50.1399 67.229 50.3769Z" fill="#001D37"/>
<path d="M61.2921 32.6816C61.2652 32.3287 61.2921 31.965 61.2248 31.6229C61.0446 30.7259 60.6599 29.942 60.0466 29.2282C59.4387 28.5197 58.7554 28.0564 57.8489 27.884C57.2948 27.7789 56.7514 27.6335 56.1973 27.5311C55.9848 27.4907 55.7535 27.5042 55.5356 27.5311C54.8792 27.6146 54.2283 27.7547 53.5719 27.8086C51.7212 27.9621 50.4704 29.1312 49.7979 30.7501C49.2814 31.9947 49.3729 33.2984 49.3621 34.5968C49.3621 34.9201 49.3944 35.2433 49.3541 35.5612C49.2949 36.0461 49.2572 36.5202 49.4778 36.9781C49.502 37.0293 49.4966 37.0966 49.5074 37.1559C49.6446 37.8994 49.9028 38.6455 50.5161 39.0577C51.1483 39.4806 51.4979 40.1433 52.0978 40.5769C52.5148 40.8786 52.8349 41.3096 53.2141 41.6652C53.4616 41.8969 53.7844 42.0558 53.9888 42.3171C54.4596 42.9205 55.0568 43.365 55.6566 43.8229C56.0951 44.1569 56.5147 44.5718 56.6223 45.1294C56.7703 45.8998 56.816 46.6918 56.9048 47.4729C56.894 47.4729 56.8805 47.4756 56.8698 47.4783C56.8698 47.6022 56.8725 47.7235 56.8698 47.8474C56.8402 48.7633 56.4636 49.3047 55.6297 49.531C55.4925 49.5687 55.3446 49.5687 55.2047 49.601C54.7743 49.7007 54.4192 49.5067 54.1745 49.1377C53.6257 48.3053 53.9216 47.411 53.9835 46.5517C54.0346 45.8567 53.8974 45.3045 53.0689 45.3664C52.0924 45.4392 51.116 45.5496 50.1476 45.2398C49.8356 45.1402 49.4509 45.1859 49.2249 45.5065C48.9936 45.8351 49.1523 46.1476 49.3029 46.4736C49.3971 46.6702 49.4778 46.9423 49.4159 47.1335C49.1012 48.1033 49.4966 49.0245 49.5773 49.9593C49.6123 50.3553 49.9189 50.7216 50.0481 51.1176C50.3305 52.0011 51.0084 52.5156 51.7669 52.8847C52.4045 53.1972 53.1173 53.3615 53.8086 53.55C54.1637 53.647 54.5484 53.7036 54.9115 53.6793C55.74 53.6228 56.5631 53.5043 57.3889 53.41C57.9511 53.3453 58.5053 53.2645 58.9733 52.8928C59.6135 52.381 60.1865 51.8072 60.6223 51.1095C60.8428 50.7566 61.1307 50.3957 61.1899 50.0078C61.3324 49.0757 61.3862 48.1275 61.4212 47.182C61.4373 46.7025 61.2975 46.2204 61.2948 45.7382C61.2867 44.825 61.2436 43.9657 60.8213 43.0902C60.477 42.3737 60.0143 41.8565 59.4333 41.3824C59.0298 41.0537 58.6263 40.7197 58.247 40.3641C57.7225 39.8685 57.2249 39.3432 56.7084 38.8368C55.9525 38.096 55.167 37.3849 54.4434 36.6171C54.0157 36.1619 53.7898 35.5989 53.8382 34.9282C53.8866 34.2547 53.8678 33.5705 53.8436 32.8944C53.8248 32.4068 54.04 32.1078 54.4434 31.8681C55.089 31.4855 55.7077 31.4909 56.3533 31.8681C56.8994 32.1886 56.8402 32.6627 56.8106 33.1907C56.7756 33.7968 56.7837 34.3948 56.5443 34.9739C56.3856 35.3618 56.5766 35.7013 56.9881 35.7551C57.3351 35.8009 57.701 35.7955 58.0453 35.7363C58.516 35.6555 58.9868 35.6178 59.4199 35.7928C60.0009 36.0272 60.5712 35.8521 61.1414 35.8252C61.2705 35.8198 61.4319 35.5666 61.4938 35.3942C61.5476 35.2487 61.4857 35.0601 61.4696 34.8904C61.4104 34.1524 61.3459 33.417 61.2894 32.6789L61.2921 32.6816Z" fill="#001D37"/>
<path d="M20.2057 52.1574C20.2246 51.9177 20.1761 51.6725 20.1734 51.4301C20.1654 50.6085 20.125 49.7842 20.1761 48.9653C20.2057 48.5101 20.0389 48.1841 19.5763 48.203C19.1566 48.2219 18.7397 48.3081 18.3201 48.3404C17.3544 48.4212 16.3887 48.5047 15.4203 48.5532C14.8393 48.5828 14.5165 48.1788 14.651 47.6616C14.7613 47.2467 14.807 46.8076 14.8258 46.3766C14.842 45.9537 14.7693 45.5254 14.7693 45.0998C14.7693 44.6877 14.8285 44.2728 14.8339 43.8607C14.8446 43.0121 14.8527 42.1636 14.8312 41.3178C14.8204 40.8598 14.6429 40.3884 14.7128 39.9494C14.9146 38.6779 14.8258 37.4065 14.8393 36.135C14.8393 35.9545 14.9065 35.7767 14.9011 35.5989C14.8877 34.9147 14.8527 34.2305 14.8366 33.5436C14.8258 33.1126 14.842 32.6789 14.8312 32.2479C14.8231 31.9705 14.7613 31.693 14.7666 31.4156C14.7774 30.6694 14.7962 29.9205 14.842 29.1744C14.8662 28.7811 14.9227 28.3824 15.0195 27.9999C15.1459 27.4827 14.694 26.9493 14.1748 27.0247C13.7095 27.0921 13.2387 27.1648 12.7707 27.1621C12.2166 27.1567 11.6624 27.0544 11.1083 27.0301C10.3847 26.9978 10.0054 27.4988 10.1561 28.2073C10.2287 28.5467 10.2502 28.9023 10.261 29.2525C10.2771 29.8316 10.2556 30.4135 10.2663 30.9926C10.2744 31.3428 10.3255 31.693 10.3363 32.0459C10.3497 32.5523 10.3363 33.0587 10.347 33.5652C10.3551 33.8938 10.4143 34.2197 10.4143 34.5457C10.4143 34.9713 10.3659 35.3996 10.347 35.8252C10.3175 36.5229 10.2852 37.2206 10.2771 37.9183C10.2717 38.2819 10.3363 38.6456 10.3228 39.0065C10.3094 39.3675 10.2018 39.7285 10.2099 40.0867C10.2233 40.6901 10.3336 41.2935 10.3336 41.8996C10.3336 42.503 10.2152 43.1064 10.2072 43.7125C10.1964 44.4695 10.2502 45.2264 10.2717 45.9833C10.2798 46.3281 10.2717 46.6756 10.2798 47.0204C10.2932 47.4218 10.3363 47.8259 10.339 48.2272C10.339 48.467 10.2852 48.7067 10.2744 48.9492C10.2448 49.6576 10.2368 50.3661 10.191 51.0718C10.1749 51.3439 10.0807 51.6106 10.0511 51.748C10.0511 52.4187 10.4869 52.6989 11.0545 52.6073C11.7082 52.5022 12.3726 52.4403 13.037 52.4079C13.4862 52.3864 13.9381 52.4618 14.3874 52.4672C15.2589 52.478 16.1304 52.4645 16.9993 52.4726C17.3867 52.478 17.774 52.5211 18.164 52.5426C18.6133 52.5669 19.0679 52.5723 19.5144 52.6127C19.7834 52.6369 20.1788 52.4187 20.2003 52.152L20.2057 52.1574Z" fill="#001D37"/>
<path d="M43.7617 78.7769C43.9123 78.7608 44.0549 78.7042 44.1867 78.653C44.4987 78.5291 44.6467 78.2732 44.5848 77.9688C44.5149 77.6294 44.2728 77.4085 43.9553 77.395C43.7294 77.3897 43.4954 77.4166 43.2721 77.4812C42.7772 77.6294 42.3898 77.659 42.0159 77.5755C41.6797 77.5028 41.3219 77.4597 40.9507 77.4516C40.7113 77.4516 40.5068 77.5432 40.3965 77.721C40.2809 77.9068 40.2836 78.1466 40.4073 78.381C40.566 78.6827 40.8485 78.7338 41.104 78.7769C41.3999 78.8308 41.5694 78.987 41.607 79.243C41.6259 79.3615 41.6205 79.4881 41.6151 79.6201C41.6097 79.7386 41.607 79.8544 41.6151 79.973C41.6393 80.28 41.6043 80.5844 41.5694 80.9077C41.5156 81.3845 41.4591 81.8774 41.607 82.3839C41.6312 82.4674 41.6016 82.5024 41.5936 82.5159C41.5505 82.5697 41.4483 82.5967 41.3353 82.5859C41.182 82.5724 41.0206 82.5563 40.8673 82.5239C40.0549 82.3569 39.3044 82.3542 38.5728 82.5239C38.4248 82.559 38.2177 82.5751 38.0832 82.462C37.9541 82.3542 37.9325 82.163 37.9406 82.0229C37.9514 81.7347 37.9756 81.4464 37.9971 81.1582C38.0159 80.9131 38.0348 80.6679 38.0482 80.4228C38.0617 80.1454 38.0536 79.8894 38.0186 79.6578C37.9299 79.0517 38.0106 78.82 38.6292 78.7231C38.8606 78.688 39.0704 78.5614 39.1888 78.389C39.2775 78.2597 39.3098 78.1116 39.2775 77.9715C39.2318 77.756 39.0704 77.5459 38.8579 77.4301C38.6777 77.3304 38.4867 77.3061 38.3172 77.3654C37.6098 77.6132 36.8915 77.6456 36.1249 77.4624C35.9447 77.4193 35.7402 77.4301 35.5896 77.4947C35.2426 77.6402 35.0839 77.8772 35.1215 78.1951C35.1646 78.5884 35.482 78.6665 35.6918 78.7177C36.2459 78.8577 36.4181 79.1217 36.3266 79.6982C36.2513 80.1669 36.2486 80.6437 36.2513 81.1259C36.2567 82.0822 36.2755 83.0357 36.2971 83.992L36.3051 84.3665C36.3132 84.7544 36.324 85.2042 36.3562 85.6406C36.367 85.7888 36.3912 85.9369 36.4127 86.0851C36.4477 86.306 36.48 86.5134 36.4692 86.7154C36.4289 87.4939 36.3347 87.6044 35.5412 87.7956C35.4174 87.8252 35.2856 87.8953 35.1727 87.9922C35.0839 88.0677 35.022 88.1997 35.0086 88.3236C34.9736 88.6872 35.1081 88.8812 35.2265 88.9835C35.3529 89.0913 35.5842 89.1937 35.9796 89.0886C36.8431 88.8569 37.5694 88.768 38.3118 89.0886C38.3845 89.1209 38.4625 89.1344 38.5432 89.1344C38.6561 89.1344 38.7718 89.1048 38.8848 89.0482C39.0892 88.9431 39.2372 88.7654 39.2802 88.5741C39.3259 88.3667 39.2775 88.1566 39.1457 87.9949C39.0139 87.8306 38.8068 87.7363 38.5835 87.7363C38.5808 87.7363 38.5754 87.7363 38.5728 87.7363C38.3952 87.7363 38.2446 87.6636 38.1289 87.5155C37.9756 87.3242 37.9056 87.0279 37.9594 86.7935C37.9729 86.7316 37.9944 86.6642 38.0132 86.5969C38.0832 86.3625 38.1558 86.1201 38.0724 85.9073C37.9514 85.6002 37.9648 85.2769 37.981 84.9645C37.9917 84.7005 38.0052 84.4284 37.9325 84.1779C37.9325 84.0486 37.9379 83.7415 38.0348 83.6634C38.0939 83.6149 38.2311 83.6149 38.4705 83.6634C39.3179 83.8358 40.2136 83.8412 41.1336 83.6742C41.2681 83.6499 41.451 83.6418 41.5613 83.7415C41.6662 83.8358 41.6797 84.0082 41.6743 84.1348C41.6554 84.4796 41.642 84.8244 41.6285 85.1692L41.5963 86.0635C41.5855 86.4083 41.5747 86.7531 41.5505 87.0979C41.5183 87.5666 41.4887 87.6043 41.0045 87.7417C40.9049 87.7687 40.8054 87.8118 40.7059 87.863C40.3831 88.0327 40.2432 88.3209 40.332 88.6307C40.4181 88.9324 40.6924 89.1021 41.0179 89.0563C41.4133 88.9997 41.7334 88.9378 42.024 88.8623C42.2553 88.8004 42.4678 88.8085 42.7099 88.8866C42.9977 88.9782 43.377 89.0859 43.7536 89.1102C43.958 89.1182 44.149 89.0563 44.297 88.9243C44.4395 88.795 44.5283 88.6091 44.5364 88.4179C44.5552 87.9761 44.2163 87.8495 43.8827 87.7848C43.2506 87.6609 43.2398 87.6448 43.2398 86.9848V86.2709C43.2371 85.7403 43.2344 85.2096 43.2398 84.6816C43.2452 84.1267 43.256 83.5691 43.2667 83.0142C43.2775 82.4216 43.2882 81.8289 43.2936 81.239C43.2936 81.0666 43.2802 80.8942 43.2613 80.7218C43.2533 80.6275 43.2425 80.5333 43.2371 80.439C43.2318 80.3447 43.2291 80.2504 43.2264 80.1534C43.2237 79.9622 43.2183 79.7628 43.1833 79.5689C43.1457 79.3615 43.1833 79.1702 43.2936 79.0248C43.3985 78.8847 43.5599 78.7985 43.759 78.7742L43.7617 78.7769Z" fill="#001D37"/>
<path d="M32.2889 80.3395C32.2889 80.3233 32.2889 80.3044 32.2889 80.2883C32.297 80.1374 32.3051 79.9839 32.2728 79.825C32.0899 78.8821 30.8848 77.8585 30.0267 77.678C29.3165 77.5299 28.601 77.5434 27.9097 77.5568C27.6676 77.5622 27.4255 77.5703 27.1834 77.5649C27.0623 77.5649 26.944 77.5649 26.8256 77.5649C26.64 77.5649 26.4544 77.5649 26.2688 77.5622C26.1585 77.5595 26.0455 77.5487 25.9326 77.538C25.7227 77.5191 25.5049 77.5003 25.287 77.5218C25.0798 77.5407 24.8673 77.7346 24.7571 77.9016C24.6145 78.1225 24.6979 78.3919 24.9642 78.5724C25.1067 78.6666 25.2789 78.7502 25.4887 78.8283C25.9057 78.9791 26.0644 79.2027 26.059 79.6256C26.059 79.7388 26.0455 79.8519 26.0321 79.965C26.0186 80.0943 26.0052 80.2263 26.0052 80.3556C25.9998 81.0533 26.0025 81.7483 26.0025 82.446V85.7808C26.0079 85.9101 26.0025 86.0421 26.0025 86.1741C25.9971 86.4758 25.9944 86.791 26.0213 87.1008C26.0509 87.4267 25.9648 87.6126 25.7362 87.7176C25.6528 87.7554 25.564 87.7823 25.4726 87.8065C25.3892 87.8308 25.3058 87.855 25.2278 87.8874C24.9131 88.0113 24.6602 88.3938 24.714 88.6551C24.7732 88.9406 25.1041 89.1777 25.4242 89.1777C25.4403 89.1777 25.4564 89.1777 25.4726 89.1777C25.8465 89.148 26.1478 89.0942 26.4141 89.008C26.8498 88.8679 27.2318 88.8598 27.6219 88.9783C27.942 89.0753 28.2836 89.1049 28.5418 89.1211C28.7839 89.1319 28.9668 89.078 29.0959 88.9568C29.2197 88.8409 29.2816 88.6712 29.2789 88.4557C29.2789 88.049 29.0099 87.8065 28.5418 87.7877C28.3159 87.7796 28.1141 87.7608 27.9285 87.7284C27.6945 87.688 27.6299 87.6072 27.6272 87.3459V87.0415C27.6272 86.8556 27.6299 86.6698 27.6272 86.4839C27.6192 86.263 27.6272 86.0394 27.6353 85.8186C27.6514 85.3956 27.6676 84.9566 27.5788 84.5148C27.5492 84.3639 27.6353 84.2508 27.6918 84.1996C27.8101 84.0865 27.9823 84.0353 28.1329 84.073C28.7866 84.2319 29.451 84.1969 30.0536 83.9653C30.5136 83.7902 30.9413 83.4965 31.3044 83.2352C31.5357 83.0682 31.8558 82.8069 31.95 82.4918C32.0872 82.0311 32.1706 81.549 32.2513 81.0856C32.2835 80.8998 32.3158 80.7112 32.3535 80.528L32.3131 80.3502L32.2889 80.3449V80.3395ZM27.6595 79.6499C27.6488 79.5125 27.6353 79.3724 27.6326 79.235C27.6299 79.0357 27.6568 78.9091 27.7187 78.8498C27.7644 78.804 27.8478 78.7825 27.9715 78.7825C28.0038 78.7825 28.0361 78.7825 28.0738 78.7852C28.601 78.8256 29.0233 78.8821 29.3999 78.9603C29.9514 79.0734 30.5351 79.5502 30.5189 80.3287C30.4974 80.4769 30.4813 80.6304 30.4678 80.7812C30.4329 81.1234 30.4006 81.4466 30.2984 81.7429C30.0832 82.3598 29.599 82.7261 28.8592 82.8312C28.6898 82.8554 28.5311 82.9039 28.375 82.9524C28.2352 82.9955 28.1034 83.0359 27.9689 83.0575C27.8747 83.0736 27.7456 83.0736 27.6622 82.9928C27.5761 82.9093 27.5438 82.7477 27.5734 82.5376L27.5896 82.4298C27.6057 82.3167 27.6245 82.2035 27.6272 82.0904L27.6353 81.8722C27.6568 81.3065 27.6783 80.7435 27.6837 80.1752C27.6837 80.0001 27.6703 79.825 27.6568 79.6526L27.6595 79.6499Z" fill="#001D37"/>
<path d="M49.4967 59.7888C49.4913 59.6325 49.4267 59.3551 49.3622 59.347C49.1765 59.3228 48.921 59.347 48.7946 59.4628C48.3077 59.9046 47.7616 60.2548 47.1591 60.4972C46.3817 60.8124 45.5532 61.009 44.7973 61.3646C43.9876 61.7471 43.2264 62.2374 42.4678 62.7196C42.2338 62.8704 42.3037 63.288 42.5593 63.4334C42.8202 63.5843 43.1026 63.7001 43.3851 63.8052C43.8531 63.9776 43.95 64.2658 43.5761 64.5837C42.9977 65.0793 42.4678 65.6154 41.7846 66.0086C40.6736 66.6471 39.5008 66.9245 38.25 66.9999C37.3192 67.0565 36.4127 66.9111 35.5062 66.7521C35.482 66.7467 35.4632 66.7413 35.4416 66.736C35.4282 66.4073 35.4174 66.0787 35.4201 65.7527C35.4309 64.2335 35.5035 62.7115 35.5223 61.1922C35.5412 59.7403 35.5761 58.2857 35.5143 56.8364C35.404 54.272 35.8209 51.7021 35.4201 49.1431C35.3556 48.7255 35.3932 48.2892 35.4067 47.8635C35.4309 47.042 35.4954 46.2204 35.4981 45.3988C35.4981 44.6876 35.4255 43.9765 35.4174 43.2653C35.4147 42.9448 35.5466 42.6188 35.517 42.3063C35.4013 41.0969 35.2776 39.8901 35.0973 38.6886C34.9951 38.0017 35.326 37.3148 35.9958 37.2259C36.5472 37.1532 37.1148 37.2259 37.6743 37.2071C38.3414 37.1855 39.0058 37.0993 39.6703 37.1047C40.7785 37.1128 41.8868 37.1855 42.995 37.2071C43.6514 37.2205 44.1141 37.5142 44.4234 38.0745C44.644 38.4731 44.8807 38.8691 45.034 39.292C45.2519 39.8874 46.1988 39.9305 46.5861 39.3648C46.9224 38.8745 46.8336 38.4112 46.57 37.9344C46.1665 37.2098 46.2015 36.4421 46.3467 35.6582C46.4866 34.8985 46.6507 34.1362 46.7072 33.3658C46.7529 32.7435 46.2068 31.9731 45.7173 31.9058C45.0529 31.8142 44.8161 32.3422 44.574 32.8243C44.531 32.9079 44.488 32.9941 44.4422 33.0776C44.1679 33.5867 43.7859 33.8884 43.1672 33.8561C42.5889 33.8237 42.0078 33.848 41.4268 33.848C40.0226 33.848 38.6185 33.8641 37.2143 33.8426C36.4719 33.8318 35.8909 33.3981 35.7671 32.8082C35.4228 31.1623 35.7806 29.5487 36.055 27.9406C36.1706 27.2591 36.4235 26.6018 36.558 25.923C36.714 25.1364 37.3004 24.7593 38.0563 25.0394C38.336 25.1418 38.5808 25.3438 38.8633 25.4273C39.3259 25.5647 39.837 25.6428 40.1948 25.2441C40.3939 25.0206 40.5633 24.6407 40.5257 24.3633C40.445 23.7653 40.0791 23.2858 39.5546 22.9545C39.2668 22.7713 38.9736 22.6016 38.7019 22.3968C38.1908 22.0143 38.1289 21.551 38.5808 21.1119C39.1403 20.5678 39.7617 20.091 40.3266 19.5522C40.5741 19.3152 40.8431 19.0189 40.9292 18.7037C41.1363 17.9306 40.0307 17.3568 39.3905 17.5373C38.9386 17.6639 38.4894 17.7959 38.0401 17.9306C37.0556 18.2242 36.757 18.1407 36.1141 17.3326C35.9635 17.144 35.8801 16.9016 35.7564 16.6915C35.5546 16.3494 35.3583 16.0046 35.1404 15.6759C34.7207 15.0429 33.8976 15.2099 33.6824 15.9669C33.5587 16.4006 33.4699 16.845 33.33 17.2733C33.2251 17.5939 33.1014 17.9198 32.9185 18.2C32.5661 18.7414 32.1438 18.7414 31.3556 18.4478C30.6616 18.1865 29.9299 17.9414 29.1983 17.8848C28.2514 17.8094 27.8856 18.5098 28.3025 19.361C28.6092 19.9886 29.2225 20.1745 29.7632 20.4708C31.0812 21.1927 31.3852 22.2756 30.051 23.1026C29.4215 23.4905 28.9212 24.0966 28.3913 24.63C28.0792 24.9424 28.0093 25.36 28.2675 25.729C28.5527 26.1331 28.9804 26.1869 29.4323 26.0119C29.8358 25.8556 30.2258 25.6671 30.6347 25.5297C31.5977 25.2064 32.4181 25.3007 32.8539 26.2678C33.7201 28.2019 34.0106 30.2572 34.0267 32.361C34.0348 33.2365 33.6125 33.751 32.7302 33.8372C32.098 33.8992 31.4551 33.8507 30.8176 33.8507C29.2225 33.8507 27.6246 33.8453 26.0295 33.8507C25.3758 33.8507 24.9132 33.6109 24.6496 32.9752C24.4613 32.5253 24.2434 32.0755 23.9529 31.6903C23.5036 31.1003 22.971 31.1785 22.6159 31.825C22.581 31.8869 22.5326 31.9381 22.4895 31.9947V33.3846C22.5541 33.7079 22.6509 34.0285 22.6778 34.3544C22.7451 35.1544 22.7881 35.9545 22.8231 36.7572C22.8446 37.2798 22.8285 37.8051 22.8365 38.3277C22.8419 38.7264 23.0732 39.0361 23.4337 39.0307C23.7323 39.0254 24.0389 38.8072 24.3187 38.6402C24.4344 38.5728 24.4828 38.3923 24.5635 38.2657C25.1445 37.366 26.3657 36.9108 27.4363 37.0616C28.3213 37.1855 29.2252 37.1936 30.1209 37.1963C30.9198 37.199 31.7214 37.1101 32.5204 37.0966C33.096 37.0886 33.4484 37.4441 33.4457 38.0206C33.4457 38.4193 33.3516 38.8152 33.3435 39.2139C33.3247 39.9897 33.365 40.7682 33.3327 41.5413C33.2816 42.7212 33.3193 43.8957 33.1686 45.089C33.0234 46.2419 33.4054 47.4568 33.486 48.6474C33.5587 49.7438 33.5667 50.8455 33.5479 51.9419C33.5372 52.5453 33.3596 53.146 33.3516 53.7467C33.3408 54.6276 33.4296 55.5084 33.4457 56.3893C33.4511 56.7287 33.3381 57.0681 33.3435 57.4075C33.365 58.7732 33.4242 60.1417 33.4484 61.5074C33.4484 61.537 32.827 65.4834 32.8458 66.0922C32.8539 66.3992 32.7275 66.6363 32.437 66.7494C31.6623 67.0511 30.8768 67.2693 30.0241 67.1212C29.2494 66.9892 28.5204 66.7683 27.8587 66.3346C26.9548 65.7447 26.0456 65.1655 25.1364 64.5863C24.8513 64.4059 24.8352 64.0826 25.088 63.8348C25.4646 63.4684 25.8358 63.0967 26.2017 62.7196C26.4411 62.4718 26.4034 62.2293 26.1156 62.0354C26.0268 61.9761 25.9327 61.9222 25.8385 61.871C24.8674 61.3512 23.8614 60.8986 22.9629 60.2548C22.8607 60.1821 22.7531 60.0986 22.6348 60.0608C21.9085 59.8238 21.3355 59.347 20.7384 58.8998C20.1466 58.4554 20.0686 58.5173 19.7969 58.7571V59.2393C19.9771 59.9342 20.1681 60.6238 20.3349 61.3215C20.4371 61.7498 20.464 62.1997 20.5931 62.6199C20.846 63.4334 20.9024 64.2281 20.6335 65.0524C20.507 65.443 20.8217 65.9171 21.1419 65.9979C21.2871 66.0356 21.4996 65.9305 21.6422 65.8336C22.0511 65.5588 22.4277 65.2409 22.8365 64.9689C23.2454 64.6968 23.5682 64.7965 23.8829 65.311C24.3644 66.0948 25.01 66.7279 25.7255 67.2774C26.1479 67.6007 26.667 68.6647 27.1404 69.0472C27.3906 69.2492 27.6246 69.4971 27.8802 69.6775C28.7437 70.2917 29.5802 71.0406 30.5943 70.9571C31.1243 70.914 32.784 72.6164 32.8808 72.8804C32.9992 73.201 33.209 73.4892 33.4027 73.772C33.6044 74.0683 33.8331 74.3431 34.0509 74.6259H34.2903C34.3899 74.3835 34.5136 74.1492 34.5862 73.8986C34.7073 73.473 35.5304 72.8723 35.7026 72.4763C35.8882 72.0453 37.8492 71.3611 38.0886 71.3961C39.1484 71.5524 40.0334 70.6634 41.0717 70.4937C41.3569 70.4479 41.6823 70.2863 41.8948 70.0169C42.4866 69.2654 43.1645 67.932 43.7294 67.3932C44.0226 67.1158 44.2593 66.8491 44.3293 66.3965C44.4073 65.8982 44.6709 65.4241 44.8834 64.9527C44.9829 64.7345 45.2062 64.6025 45.4187 64.7803C45.7522 65.0551 46.0697 65.3595 46.3467 65.6881C46.5216 65.8928 46.7152 66.0329 46.96 66.0221C47.2371 66.0086 47.3043 65.7447 47.4066 65.5265C47.5949 65.1197 47.7939 64.7156 47.9983 64.3197C48.453 63.4388 48.9291 62.5714 49.3595 61.6771C49.4563 61.4778 49.3971 61.2003 49.4052 60.9579C49.4106 60.7504 49.3971 60.5403 49.416 60.3329C49.4321 60.147 49.5074 59.9666 49.502 59.7834L49.4967 59.7888Z" fill="#001D37"/>
</svg>
