<svg width="249" height="79" viewBox="0 0 249 79" fill="none" xmlns="http://www.w3.org/2000/svg">
<g clip-path="url(#clip0_6_18)">
<path d="M53.9342 72.3624V76.6479C53.9342 77.4847 54.1999 77.7504 54.9945 77.7504H56.3403C56.5241 77.7504 56.7079 77.9144 56.7079 78.1377V78.3412C56.7079 78.5645 56.5637 78.7087 56.3403 78.7087C56.0123 78.7087 55.5232 78.7087 54.87 78.6889C54.2169 78.6493 53.7277 78.6493 53.4224 78.6493C53.1368 78.6493 52.6872 78.6493 52.0963 78.6889C51.5053 78.7087 51.0558 78.7087 50.79 78.7087C50.5666 78.7087 50.4224 78.5645 50.4224 78.3412V78.1377C50.4224 77.9144 50.6062 77.7504 50.79 77.7504H51.3611C52.1557 77.7504 52.4017 77.4847 52.4017 76.6479V66.833C52.4017 65.9962 52.1783 65.7305 51.5449 65.7305H50.8918C50.708 65.7305 50.5242 65.5666 50.5242 65.3432V65.1595C50.5242 64.9362 50.708 64.792 50.8918 64.792H56.2583C59.1367 64.792 60.6862 66.0358 60.6862 68.4047C60.6862 70.7737 58.9303 72.3624 55.9728 72.3624H53.9313H53.9342ZM53.9342 65.6881V71.4634H55.8936C57.853 71.4634 59.0773 70.3016 59.0773 68.4019C59.0773 66.6068 58.0368 65.6881 56.1792 65.6881H53.9342Z" fill="black"/>
<path d="M64.4863 74.4628V66.6465C64.4863 65.8917 64.3647 65.6882 63.6889 65.6882H63.5051C63.3214 65.6882 63.1376 65.5468 63.1376 65.3207V65.1171C63.1376 64.8938 63.3214 64.7496 63.5051 64.7496C63.8303 64.7496 64.9754 64.8118 65.2808 64.8118C65.688 64.8118 67.0169 64.7496 67.4042 64.7496C67.6276 64.7496 67.7718 64.8938 67.7718 65.1171V65.3207C67.7718 65.5666 67.6276 65.6882 67.342 65.6882H66.8331C66.2421 65.6882 66.0781 65.8521 66.0781 66.6465V74.5024C66.0781 76.7271 66.9971 77.8494 68.8349 77.8494C70.6728 77.8494 71.6511 76.6253 71.6511 74.1971V66.5645C71.6511 65.8295 71.5493 65.6882 70.8764 65.6882H70.1836C69.9603 65.6882 69.7963 65.5468 69.7963 65.3207V65.1171C69.7963 64.8938 69.9801 64.7496 70.1639 64.7496C70.5314 64.7496 71.8773 64.8118 72.2251 64.8118C72.5531 64.8118 73.4494 64.7496 73.7972 64.7496C73.9809 64.7496 74.1647 64.8938 74.1647 65.1171V65.3207C74.1647 65.544 73.9809 65.6882 73.7972 65.6882H73.5936C72.8782 65.6882 72.7171 65.8917 72.7171 66.5645V74.4006C72.7171 77.236 71.391 78.9519 68.6144 78.9519C65.8378 78.9519 64.4919 77.3405 64.4919 74.4628H64.4863Z" fill="black"/>
<path d="M83.3229 71.5256C85.6302 71.6896 86.9563 72.9334 86.9563 74.9546C86.9563 77.2189 85.2428 78.6691 82.6076 78.6691H76.8508C76.6671 78.6691 76.4833 78.525 76.4833 78.3016V78.1377C76.4833 77.9144 76.6671 77.7504 76.8508 77.7504H77.504C78.2589 77.7504 78.4823 77.5045 78.4823 76.6281V66.8132C78.4823 65.9369 78.2985 65.7107 77.6256 65.7107H76.9526C76.7689 65.7107 76.5851 65.5468 76.5851 65.3234V65.1595C76.5851 64.9362 76.7264 64.792 76.9526 64.792H81.9318C84.8922 64.792 86.3597 65.8945 86.3597 68.1192C86.3597 69.9765 85.2994 71.1807 83.3173 71.4465V71.5284L83.3229 71.5256ZM81.8131 65.6881H80.0176V71.0761H81.0779C83.5463 71.0761 84.7734 70.1376 84.7734 68.2804C84.7734 66.6266 83.7131 65.6881 81.8131 65.6881ZM82.2004 77.7702C84.1797 77.7702 85.322 76.7497 85.322 74.9546C85.322 73.6486 84.7904 72.7921 83.7103 72.4048C83.0374 72.139 81.7904 72.0175 80.0148 71.9977V76.6083C80.0148 77.3829 80.422 77.7702 81.2391 77.7702H82.1976H82.2004Z" fill="black"/>
<path d="M89.8544 78.6663C89.631 78.6663 89.4868 78.5221 89.4868 78.2988V78.1575C89.4868 77.9342 89.6706 77.7504 89.8544 77.7504H90.4057C91.2031 77.7504 91.4887 77.4649 91.4887 76.5066V66.7538C91.4887 65.9171 91.3445 65.6938 90.6715 65.6938H89.9562C89.7724 65.6938 89.5886 65.5298 89.5886 65.3065V65.1227C89.5886 64.8994 89.7724 64.7552 89.9562 64.7552C90.304 64.7552 91.63 64.8174 91.9976 64.8174C92.2634 64.8174 92.713 64.7976 93.3435 64.7779C93.9769 64.7581 94.4264 64.7581 94.6894 64.7581C94.8732 64.7581 95.057 64.9022 95.057 65.1256V65.3093C95.057 65.5326 94.8732 65.6966 94.6894 65.6966H93.7082C93.1371 65.6966 93.0155 65.9199 93.0155 66.7567V76.5094C93.0155 77.4083 93.3209 77.7532 94.2822 77.7532H96.0975C97.138 77.7532 97.8335 77.4875 98.2209 76.9589C98.5885 76.4274 98.7723 75.4889 98.7723 74.1631C98.7723 73.9398 98.9165 73.7758 99.1398 73.7758H99.465C99.6488 73.7758 99.8523 73.9794 99.8523 74.1631C99.8523 74.5108 99.7506 75.7942 99.7506 76.1419V78.4684C99.7506 78.6126 99.6884 78.672 99.547 78.672H89.8516L89.8544 78.6663Z" fill="black"/>
<path d="M102.488 78.3412V78.0755C102.488 77.8522 102.652 77.6882 102.875 77.6882H104.588C105.649 77.6882 105.813 77.5045 105.813 76.2804V67.1807C105.813 65.9567 105.649 65.7729 104.588 65.7729H102.875C102.652 65.7729 102.488 65.609 102.488 65.3857V65.1199C102.488 64.8966 102.652 64.7524 102.875 64.7524C103.426 64.7524 104.079 64.7722 104.854 64.792C105.609 64.8118 106.2 64.8316 106.61 64.8316C107.02 64.8316 107.611 64.8118 108.386 64.792C109.141 64.7722 109.794 64.7524 110.345 64.7524C110.568 64.7524 110.732 64.8966 110.732 65.1199V65.3857C110.732 65.609 110.568 65.7729 110.345 65.7729H108.632C107.571 65.7729 107.407 65.9567 107.407 67.1807V76.2804C107.407 77.5045 107.571 77.6882 108.632 77.6882H110.345C110.568 77.6882 110.732 77.8522 110.732 78.0755V78.3412C110.732 78.5646 110.568 78.7087 110.345 78.7087C109.794 78.7087 109.141 78.689 108.386 78.6692C107.611 78.6494 107.017 78.6296 106.61 78.6296C106.203 78.6296 105.609 78.6494 104.854 78.6692C104.079 78.689 103.426 78.7087 102.875 78.7087C102.652 78.7087 102.488 78.5646 102.488 78.3412Z" fill="black"/>
<path d="M114.897 77.0352C113.837 75.7688 113.305 74.0557 113.305 71.8931C113.305 69.7305 113.837 67.8337 114.897 66.5051C115.958 65.1793 117.366 64.5065 119.102 64.5065C120.428 64.5065 121.468 64.8542 122.184 65.5468C122.184 65.445 122.164 65.0153 122.164 64.874C122.164 64.6902 122.328 64.5065 122.512 64.5065H122.899C123.083 64.5065 123.267 64.6506 123.267 64.874C123.267 65.0973 123.267 65.445 123.247 65.9143C123.227 66.4033 123.207 66.751 123.207 66.9743C123.207 67.3418 123.27 68.7298 123.27 69.0973C123.27 69.2811 123.086 69.4648 122.902 69.4648H122.515C122.269 69.4648 122.147 69.3433 122.147 69.1171C122.147 66.8104 121.106 65.4648 119.209 65.4648C116.659 65.4648 115.044 67.8111 115.044 71.8309C115.044 75.8507 116.656 77.9935 119.331 77.9935C121.556 77.9935 122.351 77.0154 122.433 74.3808C122.433 74.1348 122.554 74.0133 122.8 74.0133H123.128C123.352 74.0133 123.496 74.1574 123.496 74.3808C123.496 74.7087 123.433 75.4408 123.433 75.7688C123.433 76.2578 123.496 77.137 123.496 77.4027C123.496 77.626 123.374 77.79 123.128 77.9341C121.924 78.6069 120.617 78.9546 119.189 78.9546C117.394 78.9546 115.963 78.3214 114.903 77.0352H114.897Z" fill="black"/>
<path d="M145.779 65.6882C145.188 65.6882 145.024 65.9115 145.024 66.5871V76.8713C145.024 77.5441 145.188 77.7702 145.759 77.7702H146.268C146.452 77.7702 146.636 77.9342 146.636 78.1575V78.3413C146.636 78.5646 146.452 78.7088 146.268 78.7088C145.92 78.7088 144.594 78.6466 144.227 78.6466C143.839 78.6466 142.573 78.7088 142.185 78.7088C142.002 78.7088 141.818 78.5646 141.818 78.3413V78.1575C141.818 77.9342 142.002 77.7702 142.185 77.7702H142.776C143.347 77.7702 143.511 77.5469 143.511 76.8713V72.0543H138.736V76.8713C138.736 77.5441 138.9 77.7702 139.471 77.7702H140.062C140.246 77.7702 140.429 77.9342 140.429 78.1575V78.3413C140.429 78.5646 140.246 78.7088 140.062 78.7088C139.675 78.7088 138.408 78.6466 138.02 78.6466C137.653 78.6466 136.327 78.7088 135.979 78.7088C135.795 78.7088 135.611 78.5646 135.611 78.3413V78.1575C135.611 77.9342 135.795 77.7702 135.979 77.7702H136.491C137.062 77.7702 137.226 77.5469 137.226 76.8713V66.5871C137.226 65.9143 137.062 65.6882 136.471 65.6882H135.982C135.798 65.6882 135.614 65.5242 135.614 65.3009V65.1171C135.614 64.8938 135.798 64.7496 135.982 64.7496C136.33 64.7496 137.656 64.8118 138.023 64.8118C138.411 64.8118 139.677 64.7496 140.065 64.7496C140.249 64.7496 140.432 64.8938 140.432 65.1171V65.3009C140.432 65.5242 140.249 65.6882 140.065 65.6882H139.494C138.903 65.6882 138.739 65.9115 138.739 66.5871V71.0366H143.514V66.5871C143.514 65.9143 143.35 65.6882 142.759 65.6882H142.188C142.004 65.6882 141.821 65.5242 141.821 65.3009V65.1171C141.821 64.8938 142.004 64.7496 142.188 64.7496C142.576 64.7496 143.842 64.8118 144.23 64.8118C144.597 64.8118 145.923 64.7496 146.271 64.7496C146.455 64.7496 146.639 64.8938 146.639 65.1171V65.3009C146.639 65.5242 146.455 65.6882 146.271 65.6882H145.782H145.779Z" fill="black"/>
<path d="M154.188 78.9518C152.576 78.9518 151.29 78.3186 150.289 77.055C149.288 75.8111 148.779 74.0359 148.779 71.7291C148.779 69.4224 149.288 67.6471 150.289 66.3835C151.29 65.1397 152.574 64.5065 154.188 64.5065C155.803 64.5065 157.106 65.1397 158.107 66.3835C159.108 67.65 159.597 69.4252 159.597 71.7291C159.597 74.033 159.108 75.8111 158.107 77.055C157.106 78.3214 155.8 78.9518 154.188 78.9518ZM154.188 77.9935C155.311 77.9935 156.229 77.462 156.902 76.402C157.575 75.3617 157.903 73.7899 157.903 71.7291C157.903 69.6683 157.575 68.0966 156.902 67.0365C156.229 65.9962 155.311 65.4648 154.188 65.4648C153.066 65.4648 152.166 65.9962 151.493 67.0365C150.82 68.0966 150.473 69.6683 150.473 71.7291C150.473 73.7899 150.82 75.3617 151.493 76.402C152.166 77.462 153.066 77.9935 154.188 77.9935Z" fill="black"/>
<path d="M163.086 74.4628V66.6465C163.086 65.8917 162.964 65.6882 162.289 65.6882H162.105C161.921 65.6882 161.737 65.5468 161.737 65.3207V65.1171C161.737 64.8938 161.921 64.7496 162.105 64.7496C162.433 64.7496 163.575 64.8118 163.881 64.8118C164.288 64.8118 165.617 64.7496 166.004 64.7496C166.227 64.7496 166.372 64.8938 166.372 65.1171V65.3207C166.372 65.5666 166.23 65.6882 165.942 65.6882H165.433C164.842 65.6882 164.678 65.8521 164.678 66.6465V74.5024C164.678 76.7271 165.597 77.8494 167.435 77.8494C169.273 77.8494 170.251 76.6253 170.251 74.1971V66.5645C170.251 65.8295 170.149 65.6882 169.476 65.6882H168.783C168.56 65.6882 168.396 65.5468 168.396 65.3207V65.1171C168.396 64.8938 168.58 64.7496 168.764 64.7496C169.131 64.7496 170.477 64.8118 170.825 64.8118C171.15 64.8118 172.049 64.7496 172.397 64.7496C172.581 64.7496 172.765 64.8938 172.765 65.1171V65.3207C172.765 65.544 172.581 65.6882 172.397 65.6882H172.193C171.478 65.6882 171.317 65.8917 171.317 66.5645V74.4006C171.317 77.236 169.991 78.9519 167.214 78.9519C164.438 78.9519 163.092 77.3405 163.092 74.4628H163.086Z" fill="black"/>
<path d="M176.169 78.9518C175.945 78.9518 175.801 78.8105 175.801 78.5843C175.801 78.3186 175.821 77.9115 175.841 77.3603C175.861 76.809 175.861 76.402 175.861 76.1362C175.861 75.8309 175.798 74.6889 175.798 74.3807C175.798 74.1574 175.943 74.0133 176.166 74.0133H176.553C176.777 74.0133 176.921 74.1772 176.921 74.4005C176.921 76.7893 178.207 78.0133 180.39 78.0133C182.126 78.0133 183.124 77.1567 183.124 75.667C183.124 74.4232 182.491 73.626 180.879 72.9532L179.064 72.1984C176.839 71.2175 175.861 70.0556 175.861 68.0768C175.861 65.8719 177.515 64.5065 180.209 64.5065C181.699 64.5065 182.884 64.874 183.721 65.5892C183.721 65.4054 183.681 64.9559 183.681 64.874C183.681 64.6902 183.845 64.5065 184.069 64.5065H184.436C184.62 64.5065 184.804 64.6506 184.804 64.874C184.804 65.1397 184.804 65.5468 184.784 66.098C184.764 66.6492 184.745 67.0563 184.745 67.322C184.745 67.6273 184.807 68.7722 184.807 69.0775C184.807 69.3009 184.623 69.445 184.439 69.445H184.052C183.828 69.445 183.684 69.2811 183.684 69.0577C183.684 66.669 182.398 65.445 180.215 65.445C178.479 65.445 177.481 66.3015 177.481 67.7913C177.481 69.0351 178.114 69.8323 179.726 70.5051L181.541 71.2599C183.766 72.2408 184.745 73.4027 184.745 75.3815C184.745 77.5864 183.09 78.9518 180.396 78.9518C178.906 78.9518 177.721 78.5843 176.884 77.8691C176.884 78.0529 176.924 78.5023 176.924 78.5843C176.924 78.7681 176.76 78.9518 176.536 78.9518H176.169Z" fill="black"/>
<path d="M197.723 68.8514C197.499 68.8514 197.355 68.6676 197.355 68.4839V68.1984C197.355 66.3213 196.702 65.6881 195.048 65.6881H191.618V70.8726H193.722C194.621 70.8726 195.068 70.4655 195.068 69.6486C195.068 69.5044 195.048 69.1397 195.048 68.9956C195.048 68.7722 195.232 68.6281 195.415 68.6281H195.803C196.026 68.6281 196.17 68.7722 196.17 68.9956C196.17 69.2613 196.17 69.6486 196.151 70.18C196.131 70.7313 196.111 71.1185 196.111 71.3843C196.111 71.7913 196.173 73.1991 196.173 73.609C196.173 73.8324 196.029 73.9765 195.806 73.9765H195.418C195.235 73.9765 195.051 73.8324 195.051 73.609C195.051 73.4649 195.07 73.1398 195.07 72.9956C195.07 72.1786 194.621 71.7716 193.725 71.7716H191.621V76.6903C191.621 77.4055 191.989 77.773 192.704 77.773H194.929C195.848 77.773 196.481 77.5893 196.826 77.2218C197.154 76.8741 197.316 76.1391 197.316 75.0168V74.5278C197.316 74.344 197.46 74.1603 197.683 74.1603H198.008C198.232 74.1603 198.376 74.344 198.376 74.5278C198.376 74.7511 198.376 75.0988 198.356 75.5878C198.336 76.0995 198.316 76.4642 198.316 76.7101C198.316 77.0578 198.379 78.0981 198.379 78.2621C198.379 78.5872 198.297 78.6691 197.971 78.6691H188.46C188.237 78.6691 188.092 78.525 188.092 78.3016V78.1377C188.092 77.9144 188.276 77.7504 188.46 77.7504H189.051C189.848 77.7504 190.091 77.5045 190.091 76.7101V66.751C190.091 65.9962 189.888 65.7107 189.254 65.7107H188.562C188.378 65.7107 188.194 65.5468 188.194 65.3234V65.1595C188.194 64.9362 188.378 64.792 188.562 64.792H197.991C198.316 64.792 198.398 64.874 198.398 65.1991C198.398 65.3828 198.336 66.2196 198.336 66.6266C198.336 66.9743 198.398 68.1786 198.398 68.4839C198.398 68.6676 198.215 68.8514 198.031 68.8514H197.726H197.723Z" fill="black"/>
<path d="M8.58422 0.681274V40.5968H18.3956V48.3622H0V0.681274H8.58422Z" fill="black"/>
<path d="M27.1155 32.4243L18.3277 0.681274H26.7762L31.4104 19.2086L36.039 0.681274H44.4875L35.6997 32.4243V48.3622H27.1155V32.4243Z" fill="black"/>
<path d="M48.1633 38.2816V10.7619C48.1633 4.01982 51.774 0 59.6089 0C67.4438 0 71.0545 4.01982 71.0545 10.7619V38.2816C71.0545 45.0237 67.4438 49.0435 59.6089 49.0435C51.774 49.0435 48.1633 45.0237 48.1633 38.2816ZM62.4703 38.6208V10.4227C62.4703 8.78876 61.5853 7.90112 59.6089 7.90112C57.6325 7.90112 56.7475 8.78594 56.7475 10.4227V38.6236C56.7475 40.2576 57.6325 41.1452 59.6089 41.1452C61.5853 41.1452 62.4703 40.2604 62.4703 38.6236V38.6208Z" fill="black"/>
<path d="M103.279 0.681274V48.3622H94.6951L86.5887 23.0899V48.3622H78.0045V0.681274H86.5887L94.6951 24.6589V0.681274H103.279Z" fill="black"/>
<path d="M109.949 38.3494V33.6483H118.534V38.6208C118.534 40.2548 119.147 41.1424 121.123 41.1424C123.1 41.1424 123.985 40.2576 123.985 38.6208V35.418C123.985 33.3741 123.168 31.9437 121.805 30.7169L112.404 21.9309C110.495 20.0906 109.952 17.7754 109.952 14.9825V10.7591C109.952 4.01701 113.563 -0.00280762 121.398 -0.00280762C129.233 -0.00280762 132.572 4.01701 132.572 10.6913V15.3924H123.988V10.4199C123.988 8.78596 123.374 7.89832 121.398 7.89832C119.421 7.89832 118.536 8.78313 118.536 10.4199V13.6199C118.536 15.6637 119.353 17.0941 120.716 18.321L130.118 27.107C132.026 28.9472 132.569 31.2625 132.569 34.0554V38.2788C132.569 45.0209 128.958 49.0407 121.123 49.0407C113.289 49.0407 109.949 45.0209 109.949 38.3466V38.3494Z" fill="black"/>
<path d="M139.25 0.681274H147.835V19.0729H154.375V0.681274H162.959V48.3622H154.375V26.9741H147.835V48.3622H139.25V0.681274Z" fill="black"/>
<path d="M175.369 0.681274H187.224L193.628 48.3622H185.384L184.363 40.1897H178.23L177.209 48.3622H168.964L175.369 0.681274ZM183.271 31.743L181.295 12.3308L179.319 31.743H183.271Z" fill="black"/>
<path d="M199.628 0.681274H214.278C219.729 0.681274 222.045 3.33854 222.045 8.78593V19.0023C222.045 22.68 221.16 24.5882 217.82 25.3373C222.248 26.632 222.522 28.6758 222.522 32.0116V42.5699C222.522 44.6138 223.204 46.929 223.885 48.3594H215.915C214.213 46.2477 213.87 42.977 213.87 38.8243V31.6045C213.87 28.8115 212.03 27.8589 210.192 27.8589H208.215V48.3622H199.631V0.681274H199.628ZM211.552 21.1846C212.779 21.1846 213.46 20.5033 213.46 19.2765V10.4905C213.46 9.26368 212.779 8.5824 211.552 8.5824H208.213V21.1846H211.552Z" fill="black"/>
<path d="M229.741 0.681274H248.544V8.5824H238.325V19.1408H245.547V27.0419H238.325V40.4611H248.818V48.3622H229.741V0.681274Z" fill="black"/>
</g>
<defs>
<clipPath id="clip0_6_18">
<rect width="248.818" height="78.9519" fill="white"/>
</clipPath>
</defs>
</svg>
